<svg width="20" height="20" viewBox="0 0 20 20" fill="none" xmlns="http://www.w3.org/2000/svg">
<path d="M16.3333 6.16667V6C16.3333 4.59987 16.3333 3.8998 16.0608 3.36502C15.8212 2.89462 15.4387 2.51217 14.9683 2.27248C14.4335 2 13.7335 2 12.3333 2H7C5.59987 2 4.8998 2 4.36502 2.27248C3.89462 2.51217 3.51217 2.89462 3.27248 3.36502C3 3.8998 3 4.59987 3 6V14.6667C3 16.0668 3 16.7669 3.27248 17.3016C3.51217 17.772 3.89462 18.1545 4.36502 18.3942C4.8998 18.6667 5.59987 18.6667 7 18.6667H10.0833M10.0833 9.5H6.33333M9.25 12.8333H6.33333M13 6.16667H6.33333M14.6667 15.3333V10.75C14.6667 10.0596 15.2263 9.5 15.9167 9.5C16.607 9.5 17.1667 10.0596 17.1667 10.75V15.3333C17.1667 16.714 16.0474 17.8333 14.6667 17.8333C13.286 17.8333 12.1667 16.714 12.1667 15.3333V12" stroke="#555555" stroke-width="1.25" stroke-linecap="round" stroke-linejoin="round"/>
</svg>
