<svg width="20" height="20" viewBox="0 0 20 20" fill="none" xmlns="http://www.w3.org/2000/svg">
<path d="M18.1101 5.42401H16.0728V1.7184C16.0728 1.36482 15.7861 1.07812 15.4325 1.07812H4.56747C4.21389 1.07812 3.92719 1.36478 3.92719 1.7184V5.42401H1.88994C1.06618 5.42401 0.395996 6.09423 0.395996 6.91799V13.3595C0.395996 14.1833 1.06618 14.8535 1.88994 14.8535H3.92727V18.2904C3.92727 18.644 4.21392 18.9307 4.56755 18.9307H15.4324C15.786 18.9307 16.0727 18.644 16.0727 18.2904V14.8535H18.1101C18.9338 14.8535 19.604 14.1833 19.604 13.3595V6.91799C19.604 6.09426 18.9338 5.42401 18.1101 5.42401ZM5.20771 2.35868H14.7923V5.42401H5.20771V2.35868ZM14.7922 17.6501H5.20783C5.20783 17.525 5.20783 12.5666 5.20783 12.4119H14.7922C14.7922 12.5705 14.7922 17.5298 14.7922 17.6501ZM18.3235 13.3595C18.3235 13.4772 18.2277 13.573 18.1101 13.573H16.0727V11.7717C16.0727 11.4181 15.7861 11.1314 15.4324 11.1314H4.56755C4.21396 11.1314 3.92727 11.4181 3.92727 11.7717V13.573H1.88994C1.77226 13.573 1.67652 13.4772 1.67652 13.3595V6.91803C1.67652 6.80035 1.77226 6.70461 1.88994 6.70461C2.38117 6.70461 17.6305 6.70461 18.1101 6.70461C18.2277 6.70461 18.3235 6.80035 18.3235 6.91803V13.3595Z" fill="#555555"/>
<path d="M15.4361 7.90625H13.8063C13.4527 7.90625 13.166 8.19291 13.166 8.54653C13.166 8.90015 13.4527 9.18681 13.8063 9.18681H15.4361C15.7897 9.18681 16.0764 8.90015 16.0764 8.54653C16.0764 8.19291 15.7897 7.90625 15.4361 7.90625Z" fill="#555555"/>
</svg>
