<svg width="20" height="20" viewBox="0 0 20 20" fill="none" xmlns="http://www.w3.org/2000/svg">
<path d="M8.41675 15.1694C11.6845 15.1694 14.3335 12.5204 14.3335 9.25268C14.3335 5.98495 11.6845 3.33594 8.41675 3.33594C5.14902 3.33594 2.5 5.98495 2.5 9.25268C2.5 12.5204 5.14902 15.1694 8.41675 15.1694Z" stroke="white" stroke-width="1.33333" stroke-miterlimit="10"/>
<path d="M17.0428 17.9534C17.3032 18.2138 17.7253 18.2138 17.9856 17.9534C18.246 17.6931 18.246 17.271 17.9856 17.0106L17.5142 17.482L17.0428 17.9534ZM12.7588 12.7266L12.2874 13.198L17.0428 17.9534L17.5142 17.482L17.9856 17.0106L13.2302 12.2552L12.7588 12.7266Z" fill="white"/>
</svg>
