<svg width="48" height="48" viewBox="0 0 48 48" fill="none" xmlns="http://www.w3.org/2000/svg">
<g clip-path="url(#clip0_38_122229)">
<path d="M47.0818 30.4898C47.0818 29.407 46.6601 28.389 45.8944 27.6234L43.4507 25.1797L41.9923 26.6382L44.4359 29.0818C45.2123 29.8582 45.2123 31.1215 44.4359 31.8978C43.6596 32.6742 42.3963 32.6742 41.62 31.8978L38.5827 28.8605C38.1799 28.4577 37.5269 28.4577 37.1242 28.8605C36.7215 29.2632 36.7215 29.9162 37.1242 30.319L42.2987 35.4935C43.0751 36.2698 43.0751 37.5331 42.2987 38.3095C41.9227 38.6856 41.4226 38.8927 40.8907 38.8927C40.3588 38.8927 39.8588 38.6856 39.4827 38.3095L34.3081 33.1349C33.9053 32.7322 33.2524 32.7322 32.8497 33.1349C32.447 33.5377 32.447 34.1907 32.8497 34.5934L35.887 37.6307C36.2631 38.0068 36.4702 38.5068 36.4702 39.0387C36.4702 39.5707 36.2631 40.0707 35.887 40.4468C35.1106 41.2232 33.8474 41.2232 33.071 40.4468L30.0337 37.4095C29.6309 37.0067 28.978 37.0067 28.5752 37.4095C28.1726 37.8122 28.1726 38.4652 28.5752 38.8679L30.1877 40.4804C30.9642 41.2568 30.9642 42.5201 30.1877 43.2964C29.8117 43.6725 29.3116 43.8796 28.7797 43.8796C28.2478 43.8796 27.7478 43.6725 27.3717 43.2964L24.867 40.7917L23.4086 42.2502L25.9132 44.7549C26.6788 45.5205 27.6968 45.9422 28.7796 45.9422C29.8624 45.9422 30.8803 45.5205 31.646 44.7549C32.2147 44.1862 32.5931 43.4782 32.7505 42.7079C33.2841 42.9598 33.8713 43.0926 34.4788 43.0926C35.5617 43.0926 36.5796 42.6709 37.3453 41.9053C37.8554 41.3951 38.2118 40.7726 38.3936 40.0938C39.1243 40.6662 40.0071 40.9534 40.8905 40.9534C41.9286 40.9534 42.9667 40.5583 43.7569 39.768C45.2204 38.3045 45.3277 35.9918 44.081 34.4024C44.7456 34.2247 45.3737 33.8768 45.8941 33.3565C46.6601 32.5906 47.0818 31.5726 47.0818 30.4898Z" fill="#455369"/>
<path d="M23.9154 6.15482C18.4536 0.693137 9.56676 0.693231 4.10498 6.15482C1.45926 8.80054 0.00219727 12.3183 0.00219727 16.06C0.00219727 19.8017 1.45926 23.3194 4.10507 25.9651L4.80876 26.6688L6.26723 25.2104L5.56354 24.5067C3.30726 22.2506 2.0647 19.2508 2.0647 16.06C2.0647 12.8692 3.30726 9.86948 5.56345 7.6132C10.221 2.95561 17.7995 2.95561 22.4569 7.6132L22.9055 8.06179L24.364 6.60332L23.9154 6.15482Z" fill="#455369"/>
<path d="M21.1212 36.2256C21.0449 36.2256 20.9692 36.2282 20.8937 36.2323C20.8979 36.1568 20.9005 36.0811 20.9005 36.0049C20.9005 34.9221 20.4788 33.9041 19.7131 33.1385C18.9475 32.3728 17.9295 31.9511 16.8467 31.9511C16.7698 31.9511 16.6934 31.9538 16.6171 31.9581C16.6791 30.8455 16.2868 29.7121 15.4387 28.864C14.5906 28.016 13.4572 27.6236 12.3447 27.6857C12.3489 27.6095 12.3516 27.533 12.3516 27.4561C12.3516 26.3733 11.9299 25.3553 11.1643 24.5897C10.3986 23.824 9.38066 23.4023 8.29785 23.4023C7.21513 23.4023 6.1971 23.824 5.43144 24.5897L2.39413 27.627C1.62847 28.3927 1.20679 29.4106 1.20679 30.4934C1.20679 31.5762 1.62847 32.5942 2.39413 33.3598C2.90432 33.8699 3.52682 34.2263 4.20547 34.4081C2.96066 35.9975 3.06848 38.3087 4.53126 39.7715C5.32157 40.5618 6.35957 40.9568 7.39766 40.9568C8.28201 40.9568 9.16569 40.669 9.89685 40.0956C10.0746 40.7602 10.4225 41.3883 10.9429 41.9087C11.7086 42.6743 12.7265 43.096 13.8093 43.096C14.4169 43.096 15.0041 42.9632 15.5377 42.7114C15.695 43.4816 16.0735 44.1896 16.6421 44.7583C17.4077 45.524 18.4257 45.9457 19.5085 45.9457C20.5913 45.9457 21.6092 45.524 22.3749 44.7583L23.9874 43.1458C24.753 42.3802 25.1747 41.3622 25.1747 40.2794C25.1747 39.1966 24.753 38.1787 23.9874 37.413C23.2219 36.6472 22.204 36.2256 21.1212 36.2256ZM3.26938 30.4933C3.26938 29.9615 3.47647 29.4614 3.8526 29.0853L6.88991 26.048C7.26594 25.6718 7.76601 25.4647 8.29785 25.4647C8.82969 25.4647 9.32976 25.6718 9.70588 26.048C10.082 26.4241 10.2891 26.9241 10.2891 27.456C10.2891 27.9879 10.082 28.4879 9.70588 28.864L6.66857 31.9013C6.29244 32.2775 5.79248 32.4846 5.26054 32.4846C4.7286 32.4846 4.22863 32.2775 3.85251 31.9013C3.47638 31.5252 3.26938 31.0252 3.26938 30.4933ZM5.98982 38.313C5.21338 37.5367 5.21338 36.2734 5.98982 35.497L11.1644 30.3225C11.5526 29.9343 12.0625 29.7402 12.5724 29.7402C13.0823 29.7402 13.5922 29.9343 13.9804 30.3225C14.7568 31.0988 14.7568 32.362 13.9804 33.1385L8.80588 38.313C8.02944 39.0893 6.76626 39.0893 5.98982 38.313ZM13.8095 41.0334C13.2777 41.0334 12.7776 40.8263 12.4015 40.4501C12.0253 40.074 11.8183 39.574 11.8183 39.0421C11.8183 38.5102 12.0253 38.0102 12.4015 37.6342L15.4388 34.5968C15.8148 34.2208 16.315 34.0136 16.8468 34.0136C17.3787 34.0136 17.8787 34.2207 18.2549 34.5968C18.631 34.973 18.8381 35.4729 18.8381 36.0049C18.8381 36.5368 18.631 37.0368 18.2549 37.4129L15.2174 40.4502C14.8413 40.8262 14.3414 41.0334 13.8095 41.0334ZM22.5292 41.6872L20.9167 43.2997C20.1404 44.0761 18.8771 44.0761 18.1007 43.2997C17.3244 42.5235 17.3243 41.2604 18.1005 40.4841L19.7133 38.8713C20.1015 38.4831 20.6114 38.289 21.1214 38.289C21.6313 38.289 22.1412 38.4831 22.5294 38.8713C23.3055 39.6476 23.3055 40.9109 22.5292 41.6872Z" fill="#09BAB0"/>
<path d="M43.8982 6.38022C41.2524 3.73441 37.7347 2.27734 33.9931 2.27734C33.9929 2.27734 33.9933 2.27734 33.9931 2.27734C30.2516 2.27734 26.7335 3.73459 24.0879 6.38022L14.242 16.2261C14.0486 16.4195 13.9399 16.6818 13.9399 16.9553C13.9399 17.2288 14.0486 17.4911 14.242 17.6845L15.0997 18.5422C17.3858 20.8282 21.1053 20.8282 23.3913 18.5422L25.0976 16.836C27.0525 14.8811 30.2331 14.8811 32.188 16.836L41.9911 26.6391C42.1845 26.8325 42.4468 26.9412 42.7203 26.9412C42.9937 26.9412 43.256 26.8325 43.4494 26.6391L43.898 26.1905C46.544 23.5448 48.0011 20.0271 48.0011 16.2855C48.0011 12.5438 46.544 9.02603 43.8982 6.38022ZM42.7159 24.4471L33.6466 15.3777C32.3101 14.0412 30.533 13.3052 28.6429 13.3052C26.7528 13.3052 24.9758 14.0413 23.6393 15.3777L21.9331 17.0839C20.4513 18.5658 18.0401 18.5658 16.5582 17.0839L16.4297 16.9554L25.5464 7.83869C27.8026 5.5825 30.8024 4.33994 33.9931 4.33994C37.1838 4.33994 40.1836 5.5825 42.4398 7.83878C44.6961 10.0951 45.9386 13.0947 45.9386 16.2855C45.9386 19.3436 44.7972 22.2263 42.7159 24.4471Z" fill="#09BAB0"/>
</g>
<defs>
<clipPath id="clip0_38_122229">
<rect width="48" height="48" fill="white"/>
</clipPath>
</defs>
</svg>
