<svg width="48" height="48" viewBox="0 0 48 48" fill="none" xmlns="http://www.w3.org/2000/svg">
<path d="M14.9034 10.4584V6.79228C14.9034 5.2545 16.1501 4.00781 17.6879 4.00781H30.3113C31.8491 4.00781 33.0958 5.2545 33.0958 6.79228V10.4584" stroke="#09BAB0" stroke-width="2.0625" stroke-miterlimit="10" stroke-linecap="square" stroke-linejoin="round"/>
<path d="M45.9154 22.4453V40.2525C45.9154 42.3152 44.2433 43.9872 42.1807 43.9872H5.81882C3.75614 43.9872 2.08411 42.3151 2.08411 40.2525V22.4453" stroke="#455369" stroke-width="2.0625" stroke-miterlimit="10" stroke-linecap="round" stroke-linejoin="round"/>
<path d="M20.2178 28.897H12.2355C6.04753 28.897 1.03125 23.8807 1.03125 17.6927V13.3557C1.03125 12.3243 1.86731 11.4883 2.89866 11.4883H45.1014C46.1328 11.4883 46.9688 12.3243 46.9688 13.3557V17.6927C46.9688 23.8807 41.9526 28.897 35.7646 28.897H28.1236" stroke="#455369" stroke-width="2.0625" stroke-miterlimit="10" stroke-linecap="round" stroke-linejoin="round"/>
<path d="M23.9998 32.6321C22.1588 32.6321 20.6663 31.1396 20.6663 29.2985V27.2908C20.6663 26.5585 21.2599 25.9648 21.9922 25.9648H26.0076C26.7399 25.9648 27.3335 26.5585 27.3335 27.2908V29.2985C27.3334 31.1396 25.8409 32.6321 23.9998 32.6321Z" stroke="#455369" stroke-width="2.0625" stroke-miterlimit="10" stroke-linecap="round" stroke-linejoin="round"/>
</svg>
