<svg width="127" height="119" viewBox="0 0 127 119" fill="none" xmlns="http://www.w3.org/2000/svg">
<path d="M2.12338 97.7622C1.98848 97.94 1.83232 98.0324 1.67612 98.0324C1.49862 98.0751 1.3424 98.0324 1.2075 97.8973L0.000488281 96.8238C0.582688 96.0132 1.1649 95.1174 1.7471 94.1504C2.308 93.2048 2.81922 92.1525 3.31622 91.0077C3.76352 89.8844 4.16819 88.6544 4.52319 87.3035C4.83559 86.0023 5.08411 84.5661 5.26161 82.9948L7.37029 83.2436C7.77499 83.3361 8.02352 83.4712 8.15132 83.6489C8.24362 83.8764 8.26492 84.1893 8.19392 84.6159C8.05902 85.5331 7.90279 86.4076 7.72529 87.2395C7.49809 88.0927 7.25671 88.8961 6.98691 89.7067C7.61171 90.9438 8.30751 92.0387 9.07431 93.027C9.81271 94.0153 10.5724 94.9111 11.3605 95.7217L10.2884 96.9304C9.99728 97.2432 9.68491 97.2432 9.34411 96.9304C8.62701 96.2763 7.95251 95.6079 7.34901 94.9325C6.72421 94.257 6.11362 93.5603 5.58112 92.8208C5.09122 93.6954 4.57291 94.5272 4.01201 95.3306C3.42981 96.1625 2.80499 96.966 2.13049 97.7552L2.12338 97.7622ZM12.1841 103.528V90.9864H10.4375C10.0328 90.9864 9.76299 90.9153 9.58549 90.7873C9.38669 90.6523 9.29441 90.4034 9.29441 89.9981V88.7183H12.1841V82.5469H13.7745C14.1295 82.5469 14.3993 82.6393 14.6265 82.7957C14.8324 82.9735 14.9389 83.2437 14.9389 83.5778V102.49C14.9389 102.825 14.8253 103.095 14.6265 103.273C14.3993 103.429 14.1366 103.521 13.7745 103.521H12.1841V103.528ZM16.2169 103.528V82.554H17.8073C18.1623 82.554 18.4321 82.6464 18.6593 82.8028C18.8581 82.9806 18.9717 83.2508 18.9717 83.585V102.498C18.9717 102.832 18.8581 103.102 18.6593 103.28C18.4321 103.436 18.1694 103.528 17.8073 103.528H16.2169Z" fill="white"/>
<path d="M20.4109 94.0656H39.7655V95.1179C39.7655 95.4734 39.6732 95.7649 39.517 95.9711C39.3395 96.1986 39.0697 96.2839 38.7289 96.2839H31.4727V102.363C31.4727 102.697 31.3591 102.967 31.1603 103.152C30.9331 103.309 30.6704 103.401 30.3083 103.401H28.7179V96.291H21.4333C21.0783 96.291 20.8298 96.1986 20.6736 95.9782C20.4961 95.772 20.4038 95.4876 20.4038 95.125V94.0727L20.4109 94.0656ZM23.2793 83.0735H36.9468V88.278C36.9468 88.9748 36.8545 89.5578 36.6983 90.0058C36.5208 90.475 36.2723 90.859 35.9599 91.1292C35.6049 91.442 35.1789 91.6482 34.6819 91.7548C34.1423 91.8899 33.5388 91.9539 32.843 91.9539H27.2624C25.8992 91.9539 24.891 91.6837 24.2591 91.1007C23.5846 90.539 23.2722 89.5721 23.2722 88.2283V83.0664L23.2793 83.0735ZM32.417 89.7356C33.0205 89.7356 33.4678 89.6432 33.7589 89.4227C34.0287 89.245 34.1849 88.8184 34.1849 88.143V85.2918H26.027V88.143C26.027 88.7686 26.1619 89.1953 26.4317 89.4014C26.7015 89.629 27.1062 89.7356 27.6884 89.7356H32.417Z" fill="white"/>
<path d="M45.6745 94.5336H47.5347C47.8684 94.5336 48.1169 94.6261 48.2518 94.8038C48.3654 94.9816 48.4293 95.2091 48.4293 95.4295V97.4274H55.0181V98.6574C55.0181 99.0627 54.9259 99.3116 54.7484 99.4467C54.5496 99.5818 54.2584 99.6457 53.875 99.6457H48.4293C48.4293 100.229 48.5216 100.748 48.6778 101.146C48.8127 101.551 49.0328 101.864 49.3523 102.113C49.6221 102.34 50.0055 102.518 50.4741 102.632C50.9214 102.724 51.4397 102.767 52.0645 102.767C52.6893 102.767 53.2289 102.703 53.6975 102.611C54.1448 102.497 54.5282 102.319 54.8406 102.07C55.1104 101.8 55.3305 101.466 55.4867 101.061C55.6216 100.613 55.6855 100.072 55.6855 99.4467V88.9665H52.4124V89.3931C52.4124 90.0899 52.3202 90.6729 52.164 91.1208C51.9865 91.5901 51.7379 91.9741 51.4255 92.2442C51.0705 92.5571 50.6374 92.7633 50.1475 92.8699C49.6079 93.005 49.0045 93.069 48.3087 93.069H45.8449C44.4746 93.069 43.4664 92.7988 42.8416 92.2158C42.1671 91.6541 41.8547 90.6871 41.8547 89.3433V83.0581H43.4025C43.7575 83.0581 44.0273 83.1505 44.2545 83.307C44.4533 83.4847 44.5669 83.7549 44.5669 84.089V85.9092H49.7002V83.0581H51.248C51.603 83.0581 51.8728 83.1505 52.1 83.307C52.3059 83.4847 52.4124 83.7549 52.4124 84.089V86.6913H55.6855V82.5391H57.276C57.631 82.5391 57.9007 82.6315 58.1279 82.7879C58.3267 82.9656 58.4403 83.2359 58.4403 83.57V99.4964C58.4403 100.527 58.2841 101.381 57.993 102.099C57.6806 102.795 57.276 103.357 56.7364 103.805C56.1755 104.21 55.508 104.523 54.7199 104.701C53.9105 104.879 53.0372 104.971 52.0503 104.971C51.0634 104.971 50.1688 104.879 49.3807 104.701C48.5713 104.523 47.9252 104.21 47.3856 103.805C46.8247 103.357 46.3987 102.795 46.1076 102.099C45.7952 101.381 45.6603 100.527 45.6603 99.4964V94.5194L45.6745 94.5336ZM47.9323 90.9004C48.5358 90.9004 48.9831 90.808 49.2742 90.5876C49.544 90.4098 49.7002 89.9832 49.7002 89.3078V88.1417H44.5669V89.3078C44.5669 89.9335 44.7018 90.36 44.9716 90.5662C45.2414 90.7938 45.6462 90.9004 46.2284 90.9004H47.9323Z" fill="white"/>
<path d="M72.7896 88.9679C72.7896 89.9135 72.6547 90.7383 72.4062 91.4351C72.1364 92.1532 71.7601 92.7362 71.2844 93.2055C70.7945 93.696 70.2336 94.0587 69.5591 94.2791C68.8633 94.5279 68.1036 94.6346 67.2942 94.6346C66.4848 94.6346 65.7251 94.5208 65.0506 94.2791C64.3761 94.0516 63.7939 93.696 63.3253 93.2055C62.8354 92.7362 62.452 92.1318 62.2035 91.4137C61.9337 90.7169 61.7988 89.9135 61.7988 88.9679C61.7988 88.0222 61.9337 87.2188 62.2035 86.5007C62.452 85.8039 62.8283 85.2209 63.3253 84.7303C63.7939 84.2611 64.3761 83.8985 65.0506 83.6567C65.7251 83.4292 66.4635 83.3012 67.2942 83.3012C68.1249 83.3012 68.8633 83.4363 69.5591 83.6567C70.2336 83.9056 70.7945 84.2611 71.2844 84.7303C71.753 85.2209 72.1364 85.8039 72.4062 86.5007C72.6547 87.2188 72.7896 88.0294 72.7896 88.9679ZM64.5678 88.9679C64.5678 89.6433 64.6317 90.1766 64.7666 90.6032C64.8802 91.0511 65.0577 91.4137 65.3062 91.6768C65.5334 91.947 65.8174 92.1461 66.1795 92.2385C66.4919 92.3736 66.8753 92.4163 67.3013 92.4163C67.7273 92.4163 68.1107 92.3736 68.4657 92.2385C68.7994 92.1461 69.0905 91.947 69.339 91.6768C69.5662 91.4066 69.7224 91.0511 69.8573 90.6032C69.9709 90.1766 70.0348 89.6362 70.0348 88.9679C70.0348 87.7094 69.7863 86.8136 69.3177 86.2732C68.8278 85.7826 68.1533 85.5124 67.3013 85.5124C66.8753 85.5124 66.4919 85.5836 66.1795 85.6689C65.8245 85.804 65.5334 85.9817 65.3062 86.2519C65.0577 86.5221 64.8802 86.8776 64.7666 87.3042C64.6317 87.7521 64.5678 88.3138 64.5678 88.9608V88.9679ZM65.8458 96.4903H67.4575C67.8125 96.4903 68.0823 96.5827 68.3095 96.7391C68.487 96.9169 68.6006 97.1871 68.6006 97.5212V99.0001C68.6006 99.6542 68.6929 100.166 68.8704 100.614C69.0479 101.019 69.2964 101.354 69.6514 101.624C69.9638 101.873 70.3898 102.05 70.8868 102.164C71.3767 102.256 71.9376 102.32 72.5695 102.32C73.7339 102.32 74.6995 102.093 75.4592 101.666C76.2189 101.218 76.7372 100.593 77.007 99.7609H79.2009C79.6269 99.7609 79.7618 99.9884 79.6056 100.436C79.066 101.83 78.214 102.882 77.0283 103.558C75.8213 104.205 74.3161 104.546 72.5695 104.546C71.5826 104.546 70.6667 104.453 69.8573 104.276C69.0266 104.098 68.3095 103.785 67.7273 103.38C67.1238 102.932 66.6552 102.37 66.3357 101.673C66.002 100.955 65.8458 100.102 65.8458 99.0712V96.4903ZM75.8568 96.8245V82.5547H77.4472C77.8022 82.5547 78.072 82.6471 78.2992 82.8035C78.498 82.9813 78.6116 83.2515 78.6116 83.5856V95.7935C78.6116 96.149 78.498 96.3979 78.2992 96.5543C78.072 96.732 77.8093 96.8245 77.4472 96.8245H75.8568Z" fill="white"/>
<path d="M99.301 89.5057C99.301 90.2665 99.1661 90.9419 98.9176 91.5249C98.6478 92.1293 98.2928 92.6483 97.8455 93.0749C97.3982 93.5229 96.8586 93.8357 96.2551 94.0632C95.6303 94.3121 94.9771 94.4187 94.26 94.4187C93.5429 94.4187 92.8968 94.305 92.2862 94.0632C91.6614 93.8357 91.143 93.5229 90.6957 93.0749C90.2271 92.6483 89.8651 92.1293 89.6237 91.5249C89.3539 90.9419 89.219 90.2665 89.219 89.5057C89.219 89.0151 89.29 88.5601 89.4178 88.1122C89.5527 87.6856 89.7302 87.2803 89.9787 86.9034H89.2403C88.8356 86.9034 88.5657 86.8394 88.3882 86.7043C88.1894 86.5693 88.0972 86.3204 88.0972 85.9223V84.6425H92.8683V82.2891H94.7286C95.112 82.2891 95.3534 82.3815 95.467 82.5379C95.5593 82.7156 95.6232 82.9645 95.6232 83.2773V84.6425H100.416V85.9223C100.416 86.3275 100.323 86.5693 100.146 86.7043C99.947 86.8394 99.656 86.9034 99.2726 86.9034H98.5342C98.7614 87.2874 98.9602 87.6856 99.0951 88.1122C99.23 88.5601 99.2939 89.008 99.2939 89.5057H99.301ZM97.9804 104.764C96.9935 104.764 96.0988 104.671 95.3107 104.494C94.5013 104.316 93.8553 104.003 93.3157 103.598C92.7548 103.15 92.3288 102.588 92.0377 101.891C91.7253 101.173 91.5904 100.32 91.5904 99.2891V97.2271C91.5904 96.9996 91.6614 96.7792 91.7963 96.6015C91.9099 96.4237 92.13 96.3313 92.4921 96.3313H100.756C101.005 96.2602 101.204 96.0824 101.381 95.7696C101.516 95.4994 101.608 95.1226 101.608 94.6249V82.5521H103.199C103.554 82.5521 103.824 82.6445 104.051 82.801C104.25 82.9787 104.363 83.2489 104.363 83.5831V87.6002H107.317V88.88C107.317 89.2853 107.225 89.5341 107.047 89.6621C106.848 89.7972 106.557 89.8683 106.174 89.8683H104.356V93.6579C104.356 94.1059 104.285 94.4685 104.2 94.7813C104.086 95.1155 103.951 95.3857 103.795 95.5918C103.618 95.8194 103.412 95.9971 103.213 96.1109C102.986 96.246 102.787 96.3099 102.588 96.3384H103.462C103.795 96.3384 104.044 96.4308 104.179 96.6086C104.292 96.7863 104.356 97.0138 104.356 97.2343V99.2962C104.356 100.327 104.2 101.18 103.909 101.898C103.596 102.595 103.192 103.157 102.652 103.605C102.091 104.01 101.417 104.323 100.636 104.501C99.8263 104.678 98.9531 104.771 97.9662 104.771L97.9804 104.764ZM91.9525 89.5057C91.9525 90.3589 92.1584 90.9846 92.5773 91.4325C92.982 91.8804 93.5429 92.108 94.26 92.108C95.0197 92.108 95.5806 91.8804 95.9853 91.4112C96.3687 90.9632 96.5675 90.3091 96.5675 89.5057C96.5675 88.7023 96.3687 88.0908 96.0066 87.6216C95.6232 87.1736 95.0907 86.9461 94.3736 86.9034H94.26C93.5429 86.9034 92.982 87.131 92.5773 87.5789C92.1513 88.0482 91.9525 88.7023 91.9525 89.5057ZM97.9804 102.545C98.6052 102.545 99.1447 102.481 99.6133 102.389C100.061 102.275 100.444 102.097 100.756 101.849C101.026 101.578 101.246 101.244 101.403 100.839C101.537 100.391 101.601 99.8508 101.601 99.2251V98.5994H94.3452V99.2251C94.3452 99.8508 94.4091 100.391 94.5724 100.839C94.7073 101.244 94.9061 101.578 95.2256 101.849C95.4954 102.097 95.8717 102.275 96.3474 102.389C96.7947 102.481 97.3556 102.545 97.9804 102.545Z" fill="white"/>
<path d="M109.149 85.74C108.744 85.74 108.474 85.676 108.339 85.4911C108.183 85.3347 108.112 85.0645 108.112 84.709V83.5216H111.542C112.166 83.5216 112.592 83.6567 112.82 83.9056C112.997 84.1757 113.089 84.6024 113.068 85.164C112.997 86.195 112.891 87.1833 112.756 88.1503C112.599 89.1385 112.372 90.1055 112.102 91.0014C111.79 91.947 111.428 92.8428 111.002 93.696C110.555 94.5919 110.015 95.4451 109.39 96.2556C109.163 96.5258 108.943 96.5685 108.694 96.3907L107.083 95.3171C108.226 93.8596 109.035 92.3309 109.525 90.717C109.972 89.1456 110.242 87.489 110.306 85.7613H109.142L109.149 85.74ZM119.856 103.529V90.9871H117.612C117.257 92.4234 116.803 93.7671 116.242 95.0256C115.66 96.3054 114.964 97.4714 114.161 98.5237C114.048 98.6588 113.934 98.7512 113.828 98.7512C113.693 98.7726 113.558 98.7512 113.444 98.6588L111.719 97.6492C112.926 96.0352 113.892 94.2364 114.566 92.2669C115.219 90.3401 115.553 88.1645 115.596 85.74H114.495C114.09 85.74 113.821 85.676 113.686 85.4911C113.53 85.3347 113.459 85.0645 113.459 84.709V83.5216H116.838C117.463 83.5216 117.868 83.6567 118.074 83.9056C118.251 84.1757 118.343 84.6024 118.343 85.164C118.301 85.7897 118.279 86.4012 118.23 86.9842C118.187 87.5886 118.116 88.1716 118.052 88.7333H119.841V82.5618H121.318C121.673 82.5618 121.943 82.6542 122.17 82.8106C122.376 82.9884 122.483 83.2585 122.483 83.5927V102.505C122.483 102.84 122.369 103.11 122.17 103.287C121.943 103.444 121.68 103.536 121.318 103.536H119.841L119.856 103.529ZM123.888 103.529V82.5547H125.365C125.72 82.5547 125.99 82.6471 126.217 82.8035C126.416 82.9813 126.53 83.2515 126.53 83.5856V102.498C126.53 102.832 126.416 103.103 126.217 103.28C125.99 103.437 125.727 103.529 125.365 103.529H123.888Z" fill="white"/>
<path d="M20.5974 110.545H18.5313V116.568H17.8923V110.545H15.8333V109.977H20.5974V110.545Z" fill="white"/>
<path d="M22.7909 111.95C23.3305 111.95 23.934 112.235 24.36 112.917V111.922H24.9919V116.558H24.36V115.633C23.9127 116.358 23.3376 116.629 22.7909 116.629C21.4916 116.629 20.5757 115.662 20.5757 114.275C20.5757 112.889 21.4916 111.943 22.7909 111.943V111.95ZM24.3813 114.282C24.3742 113.259 23.6216 112.519 22.798 112.519C21.875 112.519 21.2147 113.251 21.2147 114.282C21.2147 115.313 21.875 116.06 22.798 116.06C23.6216 116.06 24.3671 115.32 24.3813 114.282Z" fill="white"/>
<path d="M28.4926 114.247L30.2534 116.565H29.4511L28.1731 114.837L26.888 116.565H26.0857L27.8394 114.247L26.0857 111.922H26.9022L28.1802 113.671L29.4511 111.922H30.2676L28.5068 114.247H28.4926Z" fill="white"/>
<path d="M39.5344 116.568H38.8457L38.0576 114.662H34.8484L34.0532 116.568H33.3645L36.1051 109.977H36.808L39.5202 116.568H39.5344ZM37.8304 114.093L36.4814 110.787L35.104 114.093H37.8375H37.8304Z" fill="white"/>
<path d="M43.3093 115.493L43.778 115.905C43.3591 116.325 42.6633 116.616 42.0953 116.616C40.7037 116.616 39.731 115.635 39.731 114.256C39.731 112.876 40.7108 111.902 42.0953 111.902C42.6633 111.902 43.3591 112.194 43.778 112.613L43.3093 113.026C43.004 112.713 42.4857 112.507 42.0597 112.507C41.0728 112.507 40.37 113.232 40.37 114.256C40.37 115.28 41.0728 116.012 42.0597 116.012C42.4928 116.012 43.0111 115.799 43.3093 115.493Z" fill="white"/>
<path d="M47.7407 115.493L48.2094 115.905C47.7905 116.325 47.0947 116.616 46.5267 116.616C45.1351 116.616 44.1624 115.635 44.1624 114.256C44.1624 112.876 45.1422 111.902 46.5267 111.902C47.0947 111.902 47.7905 112.194 48.2094 112.613L47.7407 113.026C47.4354 112.713 46.9172 112.507 46.4912 112.507C45.5043 112.507 44.8014 113.232 44.8014 114.256C44.8014 115.28 45.5043 116.012 46.4912 116.012C46.9243 116.012 47.4425 115.799 47.7407 115.493Z" fill="white"/>
<path d="M50.9906 111.891C52.2899 111.891 53.2058 112.872 53.2058 114.251C53.2058 115.63 52.2899 116.605 50.9906 116.605C49.6913 116.605 48.7754 115.638 48.7754 114.251C48.7754 112.865 49.6913 111.891 50.9906 111.891ZM52.5597 114.251C52.5597 113.199 51.9136 112.467 50.9906 112.467C50.0676 112.467 49.4215 113.199 49.4215 114.251C49.4215 115.303 50.0676 116.036 50.9906 116.036C51.9136 116.036 52.5597 115.303 52.5597 114.251Z" fill="white"/>
<path d="M56.1028 116C56.9264 116 57.5086 115.46 57.5086 114.685V111.934H58.1405V116.569H57.5086V115.78C57.1891 116.235 56.614 116.569 56.1099 116.569C55.0307 116.569 54.2639 115.823 54.2639 114.749V111.934H54.9029V114.678C54.9029 115.453 55.3928 116.008 56.1028 116.008V116Z" fill="white"/>
<path d="M61.4425 112.491C60.6118 112.491 60.0367 113.131 60.0367 113.82V116.565H59.3977V111.929H60.0367V112.718C60.3562 112.249 60.9313 111.922 61.4354 111.922C62.543 111.922 63.2743 112.697 63.2743 113.763V116.572H62.6424V113.827C62.6424 113.052 62.1383 112.498 61.4425 112.498V112.491Z" fill="white"/>
<path d="M64.6474 115.327V112.497H63.8877V111.928H64.6474V110.727H65.2793V111.928H66.4579V112.497H65.2793V115.27C65.2793 115.661 65.5349 116.009 65.8828 116.009C66.0958 116.009 66.1739 115.981 66.3301 115.952L66.4295 116.535C66.2804 116.564 66.1455 116.585 65.8828 116.585C65.1799 116.585 64.6758 116.073 64.6474 115.32V115.327Z" fill="white"/>
<path d="M67.8124 109.914C68.0396 109.914 68.2172 110.092 68.2172 110.319C68.2172 110.547 68.0467 110.732 67.8124 110.732C67.5781 110.732 67.4006 110.554 67.4006 110.319C67.4006 110.085 67.571 109.914 67.8124 109.914ZM68.132 111.919V116.569H67.4929V111.919H68.132Z" fill="white"/>
<path d="M71.4823 112.491C70.6516 112.491 70.0765 113.131 70.0765 113.82V116.565H69.4375V111.929H70.0765V112.718C70.396 112.249 70.9711 111.922 71.4752 111.922C72.5828 111.922 73.3141 112.697 73.3141 113.763V116.572H72.6822V113.827C72.6822 113.052 72.1781 112.498 71.4823 112.498V112.491Z" fill="white"/>
<path d="M76.5033 111.961C77.2062 111.961 77.8026 112.323 78.0724 112.928V111.918H78.7043V116.34C78.683 117.705 77.8168 118.665 76.4465 118.665C75.7152 118.665 75.0549 118.338 74.5792 117.62L75.1117 117.3C75.4525 117.833 75.914 118.097 76.4465 118.097C77.4405 118.097 78.0653 117.364 78.0724 116.319V115.615C77.7529 116.198 77.1068 116.632 76.5033 116.632C75.204 116.632 74.2881 115.665 74.2881 114.278C74.2881 112.892 75.204 111.954 76.5033 111.954V111.961ZM78.0795 114.286C78.0795 113.354 77.3766 112.529 76.5175 112.529C75.5945 112.529 74.9342 113.262 74.9342 114.286C74.9342 115.309 75.5945 116.063 76.5175 116.063C77.3837 116.063 78.0795 115.245 78.0795 114.286Z" fill="white"/>
<path d="M86.8454 110.545H84.7793V116.568H84.1403V110.545H82.0813V109.977H86.8454V110.545Z" fill="white"/>
<path d="M89.036 111.891C90.3353 111.891 91.2512 112.872 91.2512 114.251C91.2512 115.63 90.3353 116.605 89.036 116.605C87.7367 116.605 86.8208 115.638 86.8208 114.251C86.8208 112.865 87.7367 111.891 89.036 111.891ZM90.6122 114.251C90.6122 113.199 89.9661 112.467 89.0431 112.467C88.1201 112.467 87.474 113.199 87.474 114.251C87.474 115.303 88.1201 116.036 89.0431 116.036C89.9661 116.036 90.6122 115.303 90.6122 114.251Z" fill="white"/>
<path d="M94.2594 111.961C94.9623 111.961 95.5587 112.323 95.8285 112.928V111.918H96.4604V116.34C96.4391 117.705 95.5729 118.665 94.2026 118.665C93.4713 118.665 92.811 118.338 92.3353 117.62L92.8678 117.3C93.2086 117.833 93.6701 118.097 94.2026 118.097C95.1966 118.097 95.8214 117.364 95.8285 116.319V115.615C95.509 116.198 94.8629 116.632 94.2594 116.632C92.9601 116.632 92.0442 115.665 92.0442 114.278C92.0442 112.892 92.9601 111.954 94.2594 111.954V111.961ZM95.8356 114.286C95.8356 113.354 95.1327 112.529 94.2736 112.529C93.3506 112.529 92.6903 113.262 92.6903 114.286C92.6903 115.309 93.3506 116.063 94.2736 116.063C95.1398 116.063 95.8356 115.245 95.8356 114.286Z" fill="white"/>
<path d="M99.5651 111.898C100.999 111.898 101.411 113.05 101.454 113.163C101.731 113.924 101.617 114.564 101.617 114.571H98.0314C98.1521 115.424 98.7841 116.029 99.5651 116.029C100.623 116.029 100.935 115.367 100.999 115.275L101.489 115.574C101.489 115.574 101.07 116.59 99.5509 116.59C98.2587 116.59 97.3569 115.63 97.3569 114.244C97.3569 112.858 98.2587 111.891 99.5509 111.891L99.5651 111.898ZM99.5863 112.474C98.7698 112.474 98.145 113.099 98.0314 114.002H100.985C100.914 113.234 100.58 112.474 99.5863 112.474Z" fill="white"/>
<path d="M102.85 115.327V112.497H102.09V111.928H102.85V110.727H103.482V111.928H104.66V112.497H103.482V115.27C103.482 115.661 103.737 116.009 104.085 116.009C104.298 116.009 104.376 115.981 104.532 115.952L104.632 116.535C104.483 116.564 104.348 116.585 104.085 116.585C103.382 116.585 102.878 116.073 102.85 115.32V115.327Z" fill="white"/>
<path d="M107.737 112.522C106.998 112.522 106.359 113.254 106.359 114.143V116.568H105.72V109.977H106.359V112.806C106.586 112.33 107.112 111.946 107.737 111.946C108.794 111.946 109.547 112.764 109.547 113.923V116.568H108.915V113.951C108.915 113.112 108.418 112.522 107.737 112.522Z" fill="white"/>
<path d="M112.868 111.898C114.302 111.898 114.714 113.05 114.757 113.163C115.034 113.924 114.92 114.564 114.92 114.571H111.335C111.455 115.424 112.087 116.029 112.868 116.029C113.926 116.029 114.239 115.367 114.302 115.275L114.792 115.574C114.792 115.574 114.373 116.59 112.854 116.59C111.562 116.59 110.66 115.63 110.66 114.244C110.66 112.858 111.562 111.891 112.854 111.891L112.868 111.898ZM112.897 112.474C112.08 112.474 111.455 113.099 111.342 114.002H114.295C114.224 113.234 113.891 112.474 112.897 112.474Z" fill="white"/>
<path d="M118.19 111.867V112.5C117.31 112.5 116.529 113.268 116.529 114.164V116.56H115.89V111.924H116.529V112.905C116.784 112.301 117.48 111.874 118.19 111.874V111.867Z" fill="white"/>
<path d="M70.5631 7.23802V7.22378C69.5194 6.61943 68.7668 5.64537 68.4473 4.47222C68.1278 3.29907 68.284 2.07612 68.8804 1.02384L67.0841 0C65.8416 2.18277 63.0726 2.93643 60.8929 1.69218L60.3817 2.58805L59.8705 3.48392C60.8716 4.05272 61.5887 4.96991 61.9366 6.06485C61.9579 6.12173 61.9863 6.17149 62.0005 6.22837C62.1993 6.94648 62.1922 7.68595 62.036 8.39695C61.9366 8.83777 61.7946 9.27859 61.5603 9.68386L63.3566 10.7077C64.5707 8.58181 67.2474 7.82101 69.3987 8.94439L95.406 23.9821V58.8566L87.951 63.1653L71.9547 72.4154C70.1797 73.4392 67.9503 73.1051 66.5303 71.676C67.2687 70.3322 67.5243 68.7609 67.219 67.2322C67.0841 66.571 66.8427 65.9453 66.5232 65.3623C66.8001 65.0779 67.1054 64.8219 67.4533 64.6228L67.5314 64.5801L72.6576 61.6153L79.0334 57.9252L80.8723 56.8587L85.892 53.9578L86.3748 53.6805H86.4103V29.3928L65.2381 17.1494L44.0659 29.3928V53.6592L47.3106 55.5362L57.8186 61.6153L63.0229 64.6228C64.1447 65.2698 64.9328 66.3719 65.1813 67.6374C65.5363 69.422 64.7837 71.3062 63.1507 72.3443C61.7023 73.2614 59.8208 73.1619 58.3369 72.3087L53.8213 69.6994L50.5766 67.8223L42.5394 63.1724L35.0844 58.8637V23.9892L60.1971 9.47053C60.7154 8.39692 60.7722 7.47973 60.6799 6.80428L33.0183 22.7947V60.0582L41.5099 64.9641L57.5062 74.2142C58.5286 74.8043 59.6575 75.0887 60.7722 75.0887C62.4052 75.0887 64.0098 74.4701 65.2452 73.3254C66.4806 74.4701 68.0852 75.0887 69.7182 75.0887C70.8329 75.0887 71.9618 74.8043 72.9842 74.2142L80.3398 69.9624L97.4721 60.0582V22.7947L70.5702 7.23802H70.5631ZM65.4014 6.64788C65.0677 6.74742 64.7411 6.87538 64.4216 7.0318C64.3577 7.06024 64.2867 7.08868 64.2228 7.12423C64.2015 6.64786 64.1234 6.17149 63.9956 5.70223C63.9317 5.4676 63.8536 5.24011 63.7684 5.0197C63.6761 4.79218 63.5767 4.57173 63.4631 4.35843C64.4216 4.30866 65.3659 4.05271 66.2179 3.60478C66.2392 4.01716 66.3102 4.43665 66.4096 4.84903C66.4238 4.91302 66.4309 4.9699 66.4522 5.03389C66.58 5.50315 66.7575 5.9582 66.9776 6.37769C66.438 6.40613 65.9126 6.50568 65.4014 6.65499V6.64788ZM68.3408 28.6746L84.3442 37.9248V40.3137L67.2119 30.4095C67.4959 29.5278 68 28.9661 68.3408 28.6675V28.6746ZM46.1391 37.9248L58.5712 30.7366C60.2326 29.7767 61.2479 27.8499 60.8006 25.98C60.6799 25.468 60.4811 24.9703 60.2113 24.494C61.752 27.1602 65.16 28.0774 67.8225 26.5345C65.16 28.0774 64.2441 31.4902 65.7848 34.1565C65.6357 33.9005 65.4724 33.6588 65.2878 33.4312C63.9246 31.7462 61.4609 31.4546 59.5865 32.5354L46.1391 40.3066V37.9176V37.9248ZM46.1391 49.9762V48.2485L65.2452 37.1995L84.3513 48.2485V50.6374L65.2452 39.5885L46.1391 50.6374V49.9762ZM65.2452 50.2179L53.7432 56.8658L51.6771 55.6713L65.2452 47.829L78.8133 55.6713L76.7472 56.8658L65.2452 50.2179Z" fill="white"/>
</svg>
